<?xml version="1.0" encoding="UTF-8"?>
<svg id="Layer_2" data-name="Layer 2" xmlns="http://www.w3.org/2000/svg" xmlns:xlink="http://www.w3.org/1999/xlink" viewBox="0 0 240.72 76.26">
  <defs>
    <style>
      .cls-1 {
        fill: url(#linear-gradient-3);
      }

      .cls-1, .cls-2, .cls-3 {
        fill-rule: evenodd;
      }

      .cls-1, .cls-2, .cls-3, .cls-4 {
        stroke-width: 0px;
      }

      .cls-2 {
        fill: url(#linear-gradient);
      }

      .cls-3 {
        fill: url(#linear-gradient-2);
      }

      .cls-4 {
        fill: #fdf1f5;
      }
    </style>
    <linearGradient id="linear-gradient" x1="6.36" y1="10.99" x2="6.36" y2="64.48" gradientUnits="userSpaceOnUse">
      <stop offset="0" stop-color="#f2780b"/>
      <stop offset="1" stop-color="#d8420f"/>
    </linearGradient>
    <linearGradient id="linear-gradient-2" x1="34.94" y1="0" x2="34.94" y2="76.26" xlink:href="#linear-gradient"/>
    <linearGradient id="linear-gradient-3" x1="63.52" x2="63.52" xlink:href="#linear-gradient"/>
  </defs>
  <g id="Layer_1-2" data-name="Layer 1">
    <g>
      <g>
        <path class="cls-2" d="M3.39,16.37c-2.1,1.21-3.39,3.45-3.39,5.87v30.98c0,2.43,1.29,4.67,3.39,5.87l9.32,5.38V10.99l-9.32,5.38Z"/>
        <path class="cls-3" d="M47.45,27.38l-9.12-5.26c-.07-.04-.14-.08-.21-.12-1.98-1.06-4.36-1.06-6.35,0V0c-.07.04-.14.07-.21.12l-7.62,4.4c-3.01,1.74-4.87,4.95-4.87,8.43,0,12.47,0,40.65,0,51.31,0,2.41,1.29,4.63,3.38,5.84l9.12,5.26c.07.04.14.08.21.12,1.98,1.05,4.36,1.05,6.35,0,.07-.04.14-.08.21-.12l9.12-5.26c2.09-1.21,3.38-3.44,3.38-5.85v-31.02c0-2.41-1.29-4.64-3.38-5.85ZM38.11,71.91c0,1.75-1.42,3.17-3.17,3.17s-3.17-1.42-3.17-3.17V25.56c0-1.75,1.42-3.17,3.17-3.17s3.17,1.42,3.17,3.17v46.35Z"/>
        <path class="cls-1" d="M66.49,16.37l-9.32-5.38v53.49l9.32-5.38c2.1-1.2,3.39-3.45,3.39-5.87v-30.98c0-2.43-1.29-4.66-3.39-5.87Z"/>
      </g>
      <g>
        <g>
          <path class="cls-4" d="M88.99,40.95c-.07-.07-.11-.16-.11-.26v-21c0-.1.04-.19.11-.26.07-.07.16-.11.26-.11h2.86c.1,0,.19.04.26.11.07.07.11.16.11.26v21c0,.1-.04.19-.11.26-.07.07-.16.11-.26.11h-2.86c-.1,0-.19-.04-.26-.11Z"/>
          <path class="cls-4" d="M108.18,29.91c2.11.99,3.17,2.7,3.17,5.13,0,1.97-.66,3.46-1.97,4.49-1.32,1.03-3.03,1.54-5.14,1.54h-7.83c-.1,0-.19-.04-.26-.11-.07-.07-.11-.16-.11-.26v-21c0-.1.04-.19.11-.26.07-.07.16-.11.26-.11h7.58c2.26,0,4,.49,5.22,1.46,1.22.97,1.83,2.44,1.83,4.41,0,2.17-.95,3.69-2.86,4.54-.12.06-.12.12,0,.19ZM99.64,22.58v5.75c0,.1.05.16.16.16h4.19c1.1,0,1.96-.26,2.59-.79.63-.53.95-1.26.95-2.19s-.32-1.7-.95-2.25c-.63-.55-1.5-.82-2.59-.82h-4.19c-.1,0-.16.05-.16.16ZM106.8,37.05c.63-.58.95-1.37.95-2.36s-.32-1.81-.96-2.38c-.64-.57-1.51-.85-2.61-.85h-4.38c-.1,0-.16.05-.16.16v6.15c0,.1.05.16.16.16h4.44c1.08,0,1.93-.29,2.56-.87Z"/>
          <path class="cls-4" d="M114.47,40.95c-.07-.07-.11-.16-.11-.26v-21c0-.1.04-.19.11-.26.07-.07.16-.11.26-.11h2.86c.1,0,.19.04.26.11.07.07.11.16.11.26v21c0,.1-.04.19-.11.26-.07.07-.16.11-.26.11h-2.86c-.1,0-.19-.04-.26-.11Z"/>
          <path class="cls-4" d="M138.67,19.42c.07-.07.16-.11.26-.11h2.86c.1,0,.19.04.26.11.07.07.11.16.11.26v21c0,.1-.04.19-.11.26-.07.07-.16.11-.26.11h-2.86c-.1,0-.19-.04-.26-.11-.07-.07-.11-.16-.11-.26v-8.89c0-.1-.05-.16-.16-.16h-7.92c-.1,0-.16.05-.16.16v8.89c0,.1-.04.19-.11.26-.07.07-.16.11-.26.11h-2.86c-.1,0-.19-.04-.26-.11-.07-.07-.11-.16-.11-.26v-21c0-.1.04-.19.11-.26.07-.07.16-.11.26-.11h2.86c.1,0,.19.04.26.11.07.07.11.16.11.26v8.7c0,.1.05.16.16.16h7.92c.1,0,.16-.05.16-.16v-8.7c0-.1.04-.19.11-.26Z"/>
          <path class="cls-4" d="M148.76,40.42c-1.2-.63-2.13-1.53-2.78-2.69-.65-1.16-.98-2.5-.98-4.01v-7.08c0-1.49.33-2.81.99-3.96.66-1.15,1.59-2.04,2.78-2.67,1.19-.63,2.56-.95,4.12-.95s2.96.32,4.15.95c1.19.63,2.12,1.52,2.78,2.67.66,1.15.99,2.47.99,3.96v7.08c0,1.51-.33,2.85-.99,4.01-.66,1.16-1.59,2.06-2.78,2.69-1.19.63-2.57.95-4.15.95s-2.93-.32-4.13-.95ZM156.03,37.05c.79-.81,1.18-1.87,1.18-3.2v-7.24c0-1.35-.39-2.42-1.18-3.23-.79-.81-1.83-1.21-3.14-1.21s-2.32.4-3.11,1.21c-.79.81-1.18,1.88-1.18,3.23v7.24c0,1.33.39,2.39,1.18,3.2.79.81,1.82,1.21,3.11,1.21s2.35-.4,3.14-1.21Z"/>
          <path class="cls-4" d="M163.93,40.95c-.07-.07-.11-.16-.11-.26v-21c0-.1.04-.19.11-.26.07-.07.16-.11.26-.11h2.86c.1,0,.19.04.26.11.07.07.11.16.11.26v18.11c0,.1.05.16.16.16h10.41c.1,0,.19.04.26.11.07.07.11.16.11.26v2.36c0,.1-.04.19-.11.26-.07.07-.16.11-.26.11h-13.79c-.1,0-.19-.04-.26-.11Z"/>
          <path class="cls-4" d="M180.68,40.95c-.07-.07-.11-.16-.11-.26v-21c0-.1.04-.19.11-.26.07-.07.16-.11.26-.11h7.58c1.47,0,2.77.26,3.88.78,1.12.52,1.98,1.26,2.59,2.22.61.96.92,2.09.92,3.37v9.01c0,1.28-.31,2.41-.92,3.37-.61.96-1.48,1.7-2.59,2.22-1.12.52-2.41.78-3.88.78h-7.58c-.1,0-.19-.04-.26-.11ZM184.33,37.95h4.35c1.1,0,1.97-.35,2.63-1.04.65-.69.99-1.62,1.01-2.78v-7.86c0-1.18-.33-2.12-.99-2.81-.66-.69-1.55-1.04-2.67-1.04h-4.32c-.1,0-.16.05-.16.16v15.22c0,.1.05.16.16.16Z"/>
          <path class="cls-4" d="M198.89,40.95c-.07-.07-.11-.16-.11-.26v-21c0-.1.04-.19.11-.26.07-.07.16-.11.26-.11h2.86c.1,0,.19.04.26.11.07.07.11.16.11.26v21c0,.1-.04.19-.11.26-.07.07-.16.11-.26.11h-2.86c-.1,0-.19-.04-.26-.11Z"/>
          <path class="cls-4" d="M218.68,19.42c.07-.07.16-.11.26-.11h2.86c.1,0,.19.04.26.11.07.07.11.16.11.26v21c0,.1-.04.19-.11.26-.07.07-.16.11-.26.11h-2.76c-.21,0-.35-.08-.44-.25l-8.95-14.66c-.04-.06-.08-.09-.12-.08-.04.01-.06.06-.06.14l.06,14.48c0,.1-.04.19-.11.26-.07.07-.16.11-.26.11h-2.86c-.1,0-.19-.04-.26-.11-.07-.07-.11-.16-.11-.26v-21c0-.1.04-.19.11-.26.07-.07.16-.11.26-.11h2.77c.21,0,.35.08.43.25l8.92,14.66c.04.06.08.09.12.08.04-.01.06-.06.06-.14l-.03-14.48c0-.1.04-.19.11-.26Z"/>
          <path class="cls-4" d="M228.89,40.39c-1.18-.61-2.09-1.48-2.73-2.59-.64-1.12-.96-2.4-.96-3.85v-7.52c0-1.47.32-2.76.96-3.87.64-1.11,1.55-1.97,2.73-2.58,1.18-.61,2.55-.92,4.1-.92s2.88.3,4.05.9c1.17.6,2.08,1.42,2.72,2.45.64,1.04.96,2.21.96,3.51v.25c0,.1-.04.19-.11.26-.07.07-.16.11-.26.11h-2.83c-.1,0-.19-.04-.26-.11-.07-.07-.11-.16-.11-.26v-.16c0-1.12-.38-2.04-1.13-2.77-.76-.72-1.77-1.09-3.03-1.09s-2.28.38-3.04,1.13c-.77.76-1.15,1.76-1.15,3v7.77c0,1.24.4,2.24,1.21,3,.81.76,1.85,1.13,3.14,1.13s2.22-.33,2.94-.98c.71-.65,1.07-1.55,1.07-2.69v-1.93c0-.1-.05-.16-.16-.16h-3.82c-.1,0-.19-.04-.26-.11-.07-.07-.11-.16-.11-.26v-2.3c0-.1.04-.19.11-.26.07-.07.16-.11.26-.11h7.18c.1,0,.19.04.26.11.07.07.11.16.11.26v3.98c0,2.38-.7,4.24-2.1,5.56-1.4,1.33-3.28,1.99-5.64,1.99-1.55,0-2.92-.31-4.1-.92Z"/>
        </g>
        <g>
          <path class="cls-4" d="M89.24,56.76v-8.45c0-.08.04-.12.12-.12h.24c.08,0,.12.04.12.12v8.45c0,.08-.04.12-.12.12h-.24c-.08,0-.12-.04-.12-.12Z"/>
          <path class="cls-4" d="M99.62,51.1c.36.36.55.86.55,1.48v4.18c0,.08-.04.12-.12.12h-.24c-.08,0-.12-.04-.12-.12v-4.09c0-.51-.15-.92-.45-1.22s-.69-.45-1.18-.45c-.52,0-.94.15-1.24.44-.31.29-.46.7-.46,1.21v4.11c0,.08-.04.12-.12.12h-.24c-.08,0-.12-.04-.12-.12v-4.09c0-.51-.15-.92-.45-1.22-.3-.3-.69-.45-1.17-.45-.52,0-.94.15-1.24.44-.31.29-.46.7-.46,1.21v4.11c0,.08-.04.12-.12.12h-.24c-.08,0-.12-.04-.12-.12v-5.99c0-.08.04-.12.12-.12h.24c.08,0,.12.04.12.12v.62s0,.04.02.04.03,0,.04-.02c.17-.27.41-.48.71-.63.3-.14.65-.22,1.04-.22.43,0,.81.1,1.12.29.32.19.55.47.7.83,0,.02.02.02.02.02s.02,0,.03-.02c.16-.36.4-.64.74-.83.34-.19.73-.29,1.19-.29.6,0,1.09.18,1.45.54Z"/>
          <path class="cls-4" d="M106.87,52.82c.01.23.02.54.02.93s0,.69-.02.93c-.01.24-.04.46-.09.65-.12.5-.37.9-.76,1.2-.39.3-.87.45-1.43.45-.38,0-.72-.08-1.02-.24s-.54-.38-.72-.66c-.02-.02-.03-.02-.04-.02s-.02.01-.02.04v3.13c0,.08-.04.12-.12.12h-.24c-.08,0-.12-.04-.12-.12v-8.45c0-.08.04-.12.12-.12h.24c.08,0,.12.04.12.12v.68s0,.04.02.04.03,0,.04-.02c.18-.29.42-.52.73-.68.3-.16.64-.24,1.01-.24.56,0,1.04.15,1.42.45.39.3.64.7.76,1.19.05.19.08.4.09.63ZM106.37,54.75c.02-.18.02-.51.02-.97s0-.8-.02-.98-.04-.34-.08-.49c-.07-.39-.27-.71-.6-.96-.32-.25-.71-.37-1.16-.37s-.8.13-1.09.38c-.29.25-.47.57-.55.95-.04.15-.07.31-.09.49-.02.18-.03.49-.03.95s0,.79.03.96c.02.18.05.35.09.52.07.38.26.7.55.94.29.25.65.37,1.09.37s.81-.12,1.12-.37c.31-.24.51-.56.6-.94.05-.15.08-.31.1-.5Z"/>
          <path class="cls-4" d="M112.41,51.1c.36.37.54.88.54,1.52v4.14c0,.08-.04.12-.12.12h-.24c-.08,0-.12-.04-.12-.12v-.62s0-.03-.02-.03c-.01,0-.03,0-.04.02-.21.28-.49.49-.85.64-.36.14-.75.22-1.17.22-.57,0-1.05-.14-1.45-.42-.39-.28-.59-.71-.59-1.31s.23-1.09.68-1.44c.45-.34,1.07-.52,1.87-.52h1.53s.05-.02.05-.05v-.65c0-.5-.14-.89-.41-1.19-.27-.29-.7-.44-1.28-.44-.45,0-.82.09-1.11.28s-.47.44-.53.75c-.03.08-.07.12-.15.11l-.26-.04s-.06-.02-.09-.04c-.03-.02-.03-.04-.03-.07.08-.43.32-.78.71-1.04.39-.26.88-.39,1.47-.39.71,0,1.25.18,1.61.55ZM111.86,56.15c.41-.27.61-.64.61-1.12v-1.27s-.02-.05-.05-.05h-1.5c-.62,0-1.12.13-1.51.4-.39.27-.58.64-.58,1.11,0,.43.15.76.45.98.3.22.68.34,1.16.34.55,0,1.02-.13,1.43-.4Z"/>
          <path class="cls-4" d="M115.61,56.53c-.4-.3-.66-.71-.8-1.21-.1-.36-.15-.89-.15-1.57,0-.64.05-1.16.15-1.55.12-.5.39-.9.79-1.2.4-.3.89-.45,1.47-.45s1.06.15,1.48.44c.41.29.68.66.8,1.1.03.07.05.17.06.32v.02c0,.06-.04.1-.11.11l-.22.02h-.02c-.06,0-.1-.04-.11-.11l-.04-.17c-.07-.37-.28-.68-.62-.93-.34-.25-.74-.37-1.22-.37s-.88.13-1.21.39c-.32.26-.52.6-.6,1.02-.07.33-.11.79-.11,1.38s.03,1.02.1,1.37c.09.42.3.76.62,1.03.32.26.72.39,1.2.39s.89-.13,1.23-.38c.34-.25.54-.57.61-.94v-.06c.02-.08.07-.12.16-.1l.21.04c.08.02.12.06.11.14,0,.02-.01.04-.01.07s0,.07-.03.12c-.1.45-.36.82-.78,1.11-.42.29-.92.43-1.5.43s-1.07-.15-1.47-.45Z"/>
          <path class="cls-4" d="M123.42,51.07h-1.5s-.05.02-.05.05v4.13c0,.45.1.76.31.94.21.18.53.27.97.27h.27c.08,0,.12.04.12.12v.19c0,.08-.04.12-.12.12h-.31c-.56,0-.98-.11-1.27-.34-.29-.22-.44-.63-.44-1.22v-4.21s-.02-.05-.05-.05h-.76c-.08,0-.12-.04-.12-.12v-.17c0-.08.04-.12.12-.12h.76s.05-.02.05-.05v-1.4c0-.08.04-.12.12-.12h.22c.08,0,.12.04.12.12v1.4s.02.05.05.05h1.5c.08,0,.12.04.12.12v.17c0,.08-.04.12-.12.12Z"/>
          <path class="cls-4" d="M131.88,52.39s.01.02.04.02c.45.17.8.45,1.04.81.25.37.37.81.37,1.34,0,.71-.22,1.28-.67,1.7-.45.42-1.04.63-1.76.63h-2.9c-.08,0-.12-.04-.12-.12v-8.45c0-.08.04-.12.12-.12h2.81c.74,0,1.33.2,1.76.6.44.4.66.94.66,1.62,0,.46-.11.86-.34,1.19-.23.33-.55.58-.98.76-.02,0-.04.02-.04.02ZM128.36,48.67v3.45s.02.05.05.05h2.4c.59,0,1.06-.16,1.42-.48.36-.32.53-.74.53-1.26s-.18-.99-.53-1.32c-.36-.33-.83-.5-1.42-.5h-2.4s-.05.02-.05.05ZM132.31,55.91c.36-.35.54-.81.54-1.37s-.18-1.06-.55-1.4c-.37-.35-.86-.52-1.47-.52h-2.41s-.05.02-.05.05v3.73s.02.05.05.05h2.49c.58,0,1.05-.18,1.41-.53Z"/>
          <path class="cls-4" d="M134.75,59.25v-.19c0-.08.04-.12.12-.12h.05c.31,0,.56-.06.73-.17.17-.1.32-.29.45-.55.13-.27.29-.7.49-1.29.02-.03.02-.06,0-.07l-2.15-6.06v-.05c-.01-.06.02-.09.1-.09h.24c.07,0,.12.03.15.1l1.88,5.46s.02.02.04.02.03,0,.04-.02l1.84-5.46c.03-.07.07-.1.15-.1h.24c.09,0,.12.05.1.14l-2.39,6.8c-.18.52-.35.91-.51,1.16-.16.25-.34.42-.54.5-.2.09-.48.13-.84.13h-.09c-.06,0-.09-.04-.09-.12Z"/>
          <path class="cls-4" d="M143.08,56.76v-8.45c0-.08.04-.12.12-.12h.24c.08,0,.12.04.12.12v8.45c0,.08-.04.12-.12.12h-.24c-.08,0-.12-.04-.12-.12Z"/>
          <path class="cls-4" d="M149.77,51.14c.39.39.58.89.58,1.52v4.1c0,.08-.04.12-.12.12h-.24c-.08,0-.12-.04-.12-.12v-4.01c0-.51-.16-.93-.47-1.26-.32-.33-.73-.49-1.23-.49-.54,0-.97.16-1.3.48-.33.32-.49.74-.49,1.25v4.04c0,.08-.04.12-.12.12h-.24c-.08,0-.12-.04-.12-.12v-5.99c0-.08.04-.12.12-.12h.24c.08,0,.12.04.12.12v.67s0,.04.02.04c.01,0,.02,0,.03-.02.18-.29.43-.51.74-.67.31-.16.67-.24,1.09-.24.62,0,1.13.19,1.52.58Z"/>
          <path class="cls-4" d="M156.27,51.14c.39.39.58.89.58,1.52v4.1c0,.08-.04.12-.12.12h-.24c-.08,0-.12-.04-.12-.12v-4.01c0-.51-.16-.93-.47-1.26-.32-.33-.73-.49-1.23-.49-.54,0-.97.16-1.3.48-.33.32-.49.74-.49,1.25v4.04c0,.08-.04.12-.12.12h-.24c-.08,0-.12-.04-.12-.12v-5.99c0-.08.04-.12.12-.12h.24c.08,0,.12.04.12.12v.67s0,.04.02.04c.01,0,.02,0,.03-.02.18-.29.43-.51.74-.67.31-.16.67-.24,1.09-.24.62,0,1.13.19,1.52.58Z"/>
          <path class="cls-4" d="M159.49,56.53c-.4-.3-.67-.71-.81-1.21-.05-.19-.08-.4-.09-.64-.01-.24-.02-.54-.02-.93s0-.7.02-.93c.01-.23.04-.44.09-.62.13-.5.4-.9.8-1.2.4-.3.89-.45,1.47-.45s1.07.15,1.49.45.67.7.79,1.2c.04.18.07.39.08.61.01.22.02.54.02.94s0,.74-.02.96c-.01.22-.04.42-.08.6-.12.51-.39.91-.8,1.21-.41.3-.91.45-1.49.45s-1.06-.15-1.45-.45ZM162.16,56.16c.33-.26.54-.6.63-1.03.03-.12.04-.31.05-.57,0-.25.01-.52.01-.8,0-.31,0-.58-.01-.83,0-.24-.02-.42-.05-.54-.09-.42-.3-.76-.63-1.03-.33-.26-.73-.39-1.21-.39s-.87.13-1.19.39c-.32.26-.53.6-.62,1.03-.05.22-.07.67-.07,1.37s.03,1.16.07,1.37c.08.43.29.77.61,1.03.32.26.72.39,1.21.39s.88-.13,1.21-.39Z"/>
          <path class="cls-4" d="M166.43,56.79l-2.08-6v-.05c-.01-.06.02-.09.1-.09h.29c.07,0,.12.03.15.1l1.79,5.36s.02.02.04.02.03,0,.04-.02l1.8-5.36c.02-.07.07-.1.15-.1h.27c.09,0,.12.05.1.14l-2.06,6c-.03.07-.07.1-.15.1h-.29c-.07,0-.12-.03-.15-.1Z"/>
          <path class="cls-4" d="M174.09,51.1c.36.37.54.88.54,1.52v4.14c0,.08-.04.12-.12.12h-.24c-.08,0-.12-.04-.12-.12v-.62s0-.03-.02-.03c-.01,0-.03,0-.04.02-.21.28-.49.49-.85.64-.36.14-.75.22-1.17.22-.57,0-1.05-.14-1.45-.42-.39-.28-.59-.71-.59-1.31s.23-1.09.68-1.44c.45-.34,1.07-.52,1.87-.52h1.53s.05-.02.05-.05v-.65c0-.5-.14-.89-.41-1.19-.27-.29-.7-.44-1.28-.44-.45,0-.82.09-1.11.28s-.47.44-.53.75c-.03.08-.07.12-.15.11l-.26-.04s-.06-.02-.09-.04c-.03-.02-.03-.04-.03-.07.08-.43.32-.78.71-1.04.39-.26.88-.39,1.47-.39.71,0,1.25.18,1.61.55ZM173.53,56.15c.41-.27.61-.64.61-1.12v-1.27s-.02-.05-.05-.05h-1.5c-.62,0-1.12.13-1.51.4-.39.27-.58.64-.58,1.11,0,.43.15.76.45.98.3.22.68.34,1.16.34.55,0,1.02-.13,1.43-.4Z"/>
          <path class="cls-4" d="M178.86,51.07h-1.5s-.05.02-.05.05v4.13c0,.45.1.76.31.94.21.18.53.27.97.27h.27c.08,0,.12.04.12.12v.19c0,.08-.04.12-.12.12h-.31c-.56,0-.98-.11-1.27-.34-.29-.22-.44-.63-.44-1.22v-4.21s-.02-.05-.05-.05h-.76c-.08,0-.12-.04-.12-.12v-.17c0-.08.04-.12.12-.12h.76s.05-.02.05-.05v-1.4c0-.08.04-.12.12-.12h.22c.08,0,.12.04.12.12v1.4s.02.05.05.05h1.5c.08,0,.12.04.12.12v.17c0,.08-.04.12-.12.12Z"/>
          <path class="cls-4" d="M180.83,49.14c-.11-.11-.16-.24-.16-.4,0-.17.05-.3.16-.41.11-.11.24-.16.41-.16s.3.05.41.16c.11.11.16.24.16.41s-.05.29-.16.4c-.11.11-.24.16-.41.16s-.3-.05-.41-.16ZM180.97,56.75v-5.99c0-.08.04-.12.12-.12h.24c.08,0,.12.04.12.12v5.99c0,.08-.04.12-.12.12h-.24c-.08,0-.12-.04-.12-.12Z"/>
          <path class="cls-4" d="M184.52,56.53c-.4-.3-.67-.71-.81-1.21-.05-.19-.08-.4-.09-.64-.01-.24-.02-.54-.02-.93s0-.7.02-.93c.01-.23.04-.44.09-.62.13-.5.4-.9.8-1.2.4-.3.89-.45,1.47-.45s1.07.15,1.49.45.67.7.79,1.2c.04.18.07.39.08.61.01.22.02.54.02.94s0,.74-.02.96c-.01.22-.04.42-.08.6-.12.51-.39.91-.8,1.21-.41.3-.91.45-1.49.45s-1.06-.15-1.45-.45ZM187.19,56.16c.33-.26.54-.6.63-1.03.03-.12.04-.31.05-.57,0-.25.01-.52.01-.8,0-.31,0-.58-.01-.83,0-.24-.02-.42-.05-.54-.09-.42-.3-.76-.63-1.03-.33-.26-.73-.39-1.21-.39s-.87.13-1.19.39c-.32.26-.53.6-.62,1.03-.05.22-.07.67-.07,1.37s.03,1.16.07,1.37c.08.43.29.77.61,1.03.32.26.72.39,1.21.39s.88-.13,1.21-.39Z"/>
          <path class="cls-4" d="M194.15,51.14c.39.39.58.89.58,1.52v4.1c0,.08-.04.12-.12.12h-.24c-.08,0-.12-.04-.12-.12v-4.01c0-.51-.16-.93-.47-1.26-.32-.33-.73-.49-1.23-.49-.54,0-.97.16-1.3.48-.33.32-.49.74-.49,1.25v4.04c0,.08-.04.12-.12.12h-.24c-.08,0-.12-.04-.12-.12v-5.99c0-.08.04-.12.12-.12h.24c.08,0,.12.04.12.12v.67s0,.04.02.04c.01,0,.02,0,.03-.02.18-.29.43-.51.74-.67.31-.16.67-.24,1.09-.24.62,0,1.13.19,1.52.58Z"/>
        </g>
      </g>
    </g>
  </g>
</svg>